# xmcd CD database file
# Copyright (C) 1997 Ti Kan
# 
# Track frame offsets:
#     150
#     17478
#     40433
#     55863
#     70713
#     88090
#     105233
#     117305
#     133038
#     148188
#     168220
#     186978
#     198070
#     213175
#     226878
#     237973
#     252263
# 
# Disc length: 3549 seconds
# 
# Revision: 1
# Processed by: cddbd v1.4b41PL1 Copyright (c) Steve Scherf et al.
# Submitted via: DiscPlay 4.0.3
# 
DISCID=e40ddb11
DTITLE=Cato Sanden - Best of Cato Sanden
DYEAR=1900
DGENRE=
TTITLE0=Summer Paradise
TTITLE1=Let's Go For Freedom
TTITLE2=Prima Ballerina
TTITLE3=You Don't Have To Be From Texas
TTITLE4=Same Old Road
TTITLE5=River Still Flowing
TTITLE6=Here's To My Native Country
TTITLE7=I Won't Be Blue
TTITLE8=Living Today
TTITLE9=How Long Can This Last
TTITLE10=Skal For Dette Landet
TTITLE11=Ones A Hero
TTITLE12=Looking For You
TTITLE13=City Lights
TTITLE14=Feelin' Free
TTITLE15=Going In Circles
TTITLE16=Her Kan Du Bli
EXTD=
EXTT0=
EXTT1=
EXTT2=
EXTT3=
EXTT4=
EXTT5=
EXTT6=
EXTT7=
EXTT8=
EXTT9=
EXTT10=
EXTT11=
EXTT12=
EXTT13=
EXTT14=
EXTT15=
EXTT16=
PLAYORDER=
